<?xml version="1.0" encoding="UTF-8"?>
<!DOCTYPE svg PUBLIC "-//W3C//DTD SVG 1.1//EN" "http://www.w3.org/Graphics/SVG/1.1/DTD/svg11.dtd">
<svg xmlns="http://www.w3.org/2000/svg" version="1.1" width="200px" height="140px" style="shape-rendering:geometricPrecision; text-rendering:geometricPrecision; image-rendering:optimizeQuality; fill-rule:evenodd; clip-rule:evenodd" xmlns:xlink="http://www.w3.org/1999/xlink">
<g><path style="opacity:0.967" fill="#886bfd" d="M 98.5,24.5 C 108.701,24.33 111.201,28.6633 106,37.5C 99.6277,43.77 92.1277,48.1033 83.5,50.5C 83.1866,53.2469 83.52,55.9135 84.5,58.5C 90.5579,54.8926 96.8912,54.0592 103.5,56C 106.494,61.3357 105.494,66.0024 100.5,70C 95.3013,73.6002 89.6347,76.1002 83.5,77.5C 83.9499,85.9785 83.1165,94.3119 81,102.5C 76.0876,108.11 72.0876,107.444 69,100.5C 67.3677,95.9704 66.3677,91.3038 66,86.5C 65.0962,70.4601 65.4296,54.4601 67,38.5C 69.0875,34.6978 72.2541,32.1978 76.5,31C 83.7988,28.2848 91.1321,26.1182 98.5,24.5 Z"/></g>
<g><path style="opacity:0.972" fill="#886bfd" d="M 26.5,27.5 C 38.7766,27.2561 46.2766,33.2561 49,45.5C 54.0011,62.5044 56.0011,79.8378 55,97.5C 52.5171,107.755 47.1838,109.755 39,103.5C 36.9818,96.9919 35.8152,90.3253 35.5,83.5C 30.8498,84.2596 26.1831,84.9262 21.5,85.5C 21.4892,92.0511 19.6559,98.0511 16,103.5C 7.72518,108.94 3.05851,106.607 2,96.5C 1.57139,75.3095 6.23806,55.3095 16,36.5C 19.1033,32.886 22.6033,29.886 26.5,27.5 Z M 29.5,47.5 C 31.1733,48.343 32.34,49.6763 33,51.5C 34.2712,56.7539 34.7712,62.0873 34.5,67.5C 30.8455,67.9422 27.1788,68.2756 23.5,68.5C 23.804,60.941 25.804,53.941 29.5,47.5 Z"/></g>
<g><path style="opacity:0.973" fill="#896cfc" d="M 148.5,53.5 C 144.199,55.317 140.199,57.6503 136.5,60.5C 134.795,65.8446 136.795,68.0113 142.5,67C 156.516,56.6874 158.683,58.5208 149,72.5C 148.342,76.0252 149.509,78.8586 152.5,81C 155.983,81.7649 158.983,83.2649 161.5,85.5C 160.297,89.1101 159.297,92.7768 158.5,96.5C 153.167,97.8333 147.833,97.8333 142.5,96.5C 141.629,93.8877 140.963,91.221 140.5,88.5C 143.911,87.6403 147.244,86.4737 150.5,85C 147.99,82.9889 145.657,80.8222 143.5,78.5C 141.493,80.2034 139.493,80.5367 137.5,79.5C 135.547,66.3035 134.213,66.3035 133.5,79.5C 131.396,79.7073 129.063,79.874 126.5,80C 122.939,86.307 124.939,89.1404 132.5,88.5C 132.425,91.2062 132.092,93.8728 131.5,96.5C 130.432,97.4345 129.099,97.7678 127.5,97.5C 127.285,99.1788 127.952,100.179 129.5,100.5C 128.999,105.512 126.333,107.679 121.5,107C 117.437,101.947 115.271,96.1138 115,89.5C 113.247,72.4746 114.913,55.8079 120,39.5C 121.42,35.6549 123.587,32.3216 126.5,29.5C 128.632,27.8826 130.965,27.3826 133.5,28C 136.568,30.2823 139.068,33.1156 141,36.5C 143.515,42.1926 146.015,47.8593 148.5,53.5 Z M 137.5,79.5 C 136.167,79.5 134.833,79.5 133.5,79.5C 134.213,66.3035 135.547,66.3035 137.5,79.5 Z"/></g>
<g><path style="opacity:0.969" fill="#8a6dfb" d="M 172.5,100.5 C 176.167,100.5 179.833,100.5 183.5,100.5C 183.5,99.5 183.5,98.5 183.5,97.5C 181.5,97.5 179.5,97.5 177.5,97.5C 177.699,94.059 177.199,90.7256 176,87.5C 173.716,83.3862 170.883,79.7196 167.5,76.5C 167.5,74.8333 167.5,73.1667 167.5,71.5C 168.176,67.8133 169.676,64.4799 172,61.5C 173.056,56.876 171.223,54.0427 166.5,53C 161.845,52.5008 157.179,52.3342 152.5,52.5C 155.506,43.6521 160.172,35.8188 166.5,29C 173.693,26.514 178.526,29.014 181,36.5C 183.689,43.9425 185.355,51.6092 186,59.5C 186.667,70.8333 186.667,82.1667 186,93.5C 185.907,99.0697 184.074,103.903 180.5,108C 178.833,108.667 177.167,108.667 175.5,108C 174.009,105.692 173.009,103.192 172.5,100.5 Z"/></g>
<g><path style="opacity:1" fill="#dde96c" d="M 169.5,42.5 C 175.337,41.5179 178.17,43.8513 178,49.5C 173.104,54.0193 169.271,53.3526 166.5,47.5C 167.092,45.5775 168.092,43.9108 169.5,42.5 Z"/></g>
<g><path style="opacity:0.993" fill="#e0ee66" d="M 152.5,52.5 C 157.179,52.3342 161.845,52.5008 166.5,53C 171.223,54.0427 173.056,56.876 172,61.5C 169.676,64.4799 168.176,67.8133 167.5,71.5C 164.116,73.7033 164.116,75.37 167.5,76.5C 170.883,79.7196 173.716,83.3862 176,87.5C 177.199,90.7256 177.699,94.059 177.5,97.5C 179.5,97.5 181.5,97.5 183.5,97.5C 183.5,98.5 183.5,99.5 183.5,100.5C 179.833,100.5 176.167,100.5 172.5,100.5C 166.833,100.5 161.167,100.5 155.5,100.5C 152.167,100.5 148.833,100.5 145.5,100.5C 143.833,100.5 142.167,100.5 140.5,100.5C 140.229,98.6203 140.896,97.287 142.5,96.5C 147.833,97.8333 153.167,97.8333 158.5,96.5C 161.572,96.8174 164.572,96.4841 167.5,95.5C 167.013,91.1818 165.013,87.8484 161.5,85.5C 158.983,83.2649 155.983,81.7649 152.5,81C 149.509,78.8586 148.342,76.0252 149,72.5C 158.683,58.5208 156.516,56.6874 142.5,67C 136.795,68.0113 134.795,65.8446 136.5,60.5C 140.199,57.6503 144.199,55.317 148.5,53.5C 149.708,52.7659 151.041,52.4326 152.5,52.5 Z"/></g>
<g><path style="opacity:1" fill="#dfeb69" d="M 172.5,66.5 C 175.653,69.0709 179.32,70.5709 183.5,71C 186.75,75.4796 185.583,77.9796 180,78.5C 175.692,78.1758 171.859,76.6758 168.5,74C 170.494,71.8425 171.828,69.3425 172.5,66.5 Z"/></g>
<g><path style="opacity:0.999" fill="#deeb6a" d="M 140.5,88.5 C 137.796,89.7143 135.129,89.7143 132.5,88.5C 124.939,89.1404 122.939,86.307 126.5,80C 129.063,79.874 131.396,79.7073 133.5,79.5C 134.833,79.5 136.167,79.5 137.5,79.5C 139.493,80.5367 141.493,80.2034 143.5,78.5C 145.657,80.8222 147.99,82.9889 150.5,85C 147.244,86.4737 143.911,87.6403 140.5,88.5 Z"/></g>
<g><path style="opacity:0.961" fill="#dfed67" d="M 131.5,96.5 C 134.5,96.1667 135.833,97.5 135.5,100.5C 133.5,100.5 131.5,100.5 129.5,100.5C 127.952,100.179 127.285,99.1788 127.5,97.5C 129.099,97.7678 130.432,97.4345 131.5,96.5 Z"/></g>
<g><path style="opacity:0.842" fill="#886bfd" d="M 145.5,100.5 C 148.833,100.5 152.167,100.5 155.5,100.5C 154.577,104.264 152.244,105.764 148.5,105C 146.859,103.871 145.859,102.371 145.5,100.5 Z"/></g>
</svg>
