<svg width="25" height="27" viewBox="0 0 25 27" fill="none" xmlns="http://www.w3.org/2000/svg">
<path d="M23.4416 8.41402L14.2857 0.658375C13.86 0.294836 13.3386 0.0659229 12.7858 0H12.2338C11.6768 0.0645605 11.1507 0.293482 10.7208 0.658375L1.53904 8.41402C1.06216 8.81651 0.677482 9.31952 0.411714 9.88801C0.145947 10.4565 0.00539021 11.0768 4.54289e-06 11.7059V24.2809C-0.000645863 24.638 0.0685491 24.9918 0.203402 25.3218C0.338255 25.6517 0.536231 25.9513 0.785852 26.2033C1.03441 26.4564 1.32982 26.6571 1.65525 26.7939C1.98068 26.9306 2.32964 27.0006 2.6819 27H7.87671C8.04893 27 8.21404 26.9306 8.33582 26.8071C8.4576 26.6837 8.52606 26.5162 8.52606 26.3416V21.4565C8.53185 20.3332 8.95639 19.2537 9.71442 18.4345C10.0902 18.0231 10.545 17.6941 11.0509 17.4676C11.5567 17.2412 12.103 17.1221 12.656 17.1178H12.7793C13.8262 17.1502 14.8209 17.5885 15.5586 18.3423C15.9418 18.7289 16.2459 19.1885 16.4532 19.6947C16.6605 20.2009 16.7668 20.7437 16.7663 21.2919V26.3416C16.7663 26.5162 16.8347 26.6837 16.9565 26.8071C17.0783 26.9306 17.2434 27 17.4156 27H22.3183C22.6706 27.0014 23.0197 26.9316 23.3452 26.7949C23.6708 26.6581 23.9662 26.457 24.2143 26.2033C24.4637 25.9525 24.6617 25.6541 24.7966 25.3252C24.9315 24.9963 25.0005 24.6436 25 24.2875V11.7059C24.9918 11.0753 24.8482 10.4542 24.5791 9.88564C24.3099 9.31712 23.9217 8.81492 23.4416 8.41402Z" fill="white"/>
</svg>
