<svg width="32" height="31" viewBox="0 0 32 31" fill="none" xmlns="http://www.w3.org/2000/svg">
<path d="M27.7345 25.9212C27.0629 24.508 26.1751 23.212 25.1041 22.0815C23.6208 23.5785 21.7972 24.6804 19.7949 25.2895C19.7014 26.0034 19.3563 26.6585 18.8238 27.1334C18.2912 27.6083 17.6073 27.8706 16.8989 27.8718C16.5126 27.8726 16.1299 27.7959 15.7727 27.6462C15.4156 27.4964 15.0908 27.2765 14.8174 26.999C14.5439 26.7216 14.327 26.392 14.179 26.0292C14.031 25.6664 13.9547 25.2774 13.9547 24.8846C13.9547 24.4918 14.031 24.1029 14.179 23.7401C14.327 23.3773 14.5439 23.0477 14.8174 22.7702C15.0908 22.4928 15.4156 22.2729 15.7727 22.1231C16.1299 21.9734 16.5126 21.8967 16.8989 21.8975C17.4259 21.8999 17.9425 22.0464 18.3947 22.3216C18.8469 22.5967 19.218 22.9905 19.4691 23.4616C21.0794 22.9417 22.5481 22.047 23.7586 20.8486C23.5173 20.6585 23.2699 20.4745 23.0226 20.3027C22.2935 19.8024 21.5151 19.381 20.6999 19.0453C19.3962 20.0499 17.8048 20.5928 16.1689 20.591C14.5669 20.5924 13.0065 20.0722 11.7164 19.1066C10.9467 19.4416 10.2112 19.8525 9.52037 20.3334C7.49278 21.7543 5.86788 23.6918 4.80842 25.9519C4.6781 26.2341 4.61009 26.5418 4.60928 26.8536C4.61147 27.2271 4.70046 27.5949 4.86882 27.927C5.01981 28.2329 5.25164 28.4899 5.53842 28.6691C7.00539 29.5013 8.59747 30.0816 10.2504 30.3866C12.2361 30.7965 14.2573 31.002 16.2835 31C18.3097 31.0018 20.331 30.7963 22.3167 30.3866C23.9687 30.0814 25.5604 29.5033 27.0287 28.6753C27.3196 28.4788 27.5576 28.2115 27.7209 27.8976C27.8843 27.5837 27.9678 27.2332 27.9638 26.8781C27.9597 26.5582 27.8898 26.2427 27.7587 25.9519L27.7345 25.9212Z" fill="white"/>
<path d="M12.1087 17.0396C12.6408 17.5832 13.2736 18.0144 13.9705 18.3081C14.6674 18.6018 15.4146 18.7523 16.169 18.7509C16.9236 18.7537 17.6712 18.6038 18.3682 18.31C19.0653 18.0162 19.698 17.5843 20.2293 17.0396C20.7651 16.4994 21.1898 15.8562 21.4788 15.1475C21.7678 14.4388 21.9153 13.6787 21.9126 12.9115C21.914 12.1446 21.7659 11.3849 21.477 10.6764C21.1881 9.96786 20.764 9.32455 20.2293 8.78354C19.698 8.23878 19.0653 7.80693 18.3682 7.51313C17.6712 7.21933 16.9236 7.06947 16.169 7.07223C15.4146 7.07082 14.6674 7.22132 13.9705 7.51504C13.2736 7.80877 12.6408 8.23988 12.1087 8.78354C11.5739 9.32455 11.1498 9.96786 10.8609 10.6764C10.572 11.3849 10.424 12.1446 10.4254 12.9115C10.4227 13.6787 10.57 14.4388 10.859 15.1475C11.148 15.8562 11.5728 16.4994 12.1087 17.0396Z" fill="white"/>
<path d="M27.9095 18.1743C28.4472 18.1743 28.9796 18.0665 29.4763 17.8572C29.9729 17.6478 30.424 17.3409 30.804 16.9541C31.1839 16.5673 31.4852 16.1081 31.6904 15.6028C31.8956 15.0976 32.0008 14.5562 32 14.0095C31.9989 13.0125 31.6456 12.0491 31.0044 11.2948C30.3633 10.5405 29.4769 10.0455 28.5068 9.89989C27.8466 7.07864 26.2694 4.56641 24.0303 2.76978C21.7913 0.973145 19.0214 -0.00277087 16.1689 5.90923e-06C13.3194 -0.000337812 10.5529 0.975952 8.31639 2.77116C6.07988 4.56637 4.50388 7.07568 3.84306 9.89375C2.80371 9.95777 1.82749 10.4223 1.1134 11.1928C0.399304 11.9632 0.00116598 12.9816 0 14.0402C-1.17714e-06 15.1437 0.430707 16.2021 1.19765 16.983C1.96459 17.7639 3.00509 18.2033 4.09051 18.205C4.335 18.2039 4.57613 18.1473 4.79635 18.0394C5.13401 17.8671 5.41501 17.5986 5.60485 17.2665C5.87824 16.8041 6.06629 16.2948 6.15985 15.7638C6.26779 15.1959 6.32034 14.6185 6.31672 14.0402C6.33164 13.1755 6.20112 12.3146 5.93066 11.4946C5.83002 11.2012 5.68763 10.9243 5.50822 10.6727C5.94185 8.56644 6.97158 6.63488 8.4706 5.11557C9.48044 4.08601 10.6803 3.26936 12.0014 2.71254C13.3225 2.15571 14.7388 1.86965 16.1689 1.87079C17.6001 1.86884 19.0174 2.15453 20.3396 2.71138C21.6618 3.26823 22.8628 4.08528 23.8733 5.11557C25.2942 6.56199 26.2908 8.38224 26.7512 10.3722C26.616 10.5048 26.4965 10.653 26.3952 10.8138C26.1226 11.2789 25.9347 11.79 25.8401 12.3227C25.7325 12.8886 25.6799 13.4638 25.6833 14.0402C25.6679 14.9049 25.7984 15.7658 26.0693 16.5857C26.1278 16.7473 26.1964 16.9051 26.2745 17.058C25.9346 17.9289 25.4887 18.7532 24.9472 19.5115C24.7783 19.7384 24.6093 19.9654 24.4283 20.18L25.7979 21.4068C25.9728 21.1982 26.1358 20.9836 26.2926 20.7934C26.8797 20.0086 27.3737 19.1563 27.7647 18.2541L27.9095 18.1743ZM4.51884 14.0095C4.53437 14.6584 4.44263 15.3053 4.24738 15.9232C4.19812 16.0685 4.12682 16.2051 4.03616 16.328C3.45534 16.3125 2.90247 16.071 2.49163 15.6534C2.2785 15.4381 2.10962 15.1819 1.99466 14.8997C1.8797 14.6175 1.82103 14.3149 1.82203 14.0095C1.82116 13.705 1.87998 13.4033 1.99495 13.1222C2.10993 12.841 2.27868 12.5859 2.49163 12.3718C2.90247 11.9541 3.45534 11.7126 4.03616 11.6971C4.20444 11.9499 4.31761 12.2364 4.36801 12.5374C4.471 13.021 4.52157 13.5147 4.51884 14.0095ZM27.9878 16.328C27.8199 16.0728 27.707 15.7843 27.6561 15.4816C27.5583 14.9993 27.5098 14.508 27.5113 14.0156C27.4988 13.3689 27.5905 12.7246 27.7828 12.108C27.8321 11.9627 27.9032 11.8262 27.9939 11.7032C28.5747 11.7187 29.1276 11.9602 29.5384 12.3779C29.7514 12.592 29.9203 12.8471 30.0352 13.1283C30.1502 13.4095 30.209 13.7111 30.2082 14.0156C30.2092 14.321 30.1505 14.6236 30.0355 14.9058C29.9206 15.188 29.7515 15.4442 29.5384 15.6595C29.1221 16.0793 28.562 16.3189 27.9758 16.328H27.9878Z" fill="white"/>
<path d="M15.7646 24.8846C15.7662 25.1894 15.8864 25.4811 16.099 25.6961C16.3115 25.911 16.5992 26.0316 16.8989 26.0316C17.1982 26.0316 17.4851 25.9108 17.6967 25.6957C17.9083 25.4806 18.0271 25.1888 18.0271 24.8846C18.0271 24.5804 17.9083 24.2887 17.6967 24.0736C17.4851 23.8585 17.1982 23.7376 16.8989 23.7376C16.5992 23.7376 16.3115 23.8583 16.099 24.0732C15.8864 24.2881 15.7662 24.5799 15.7646 24.8846Z" fill="white"/>
</svg>
