<svg width="15" height="18" viewBox="0 0 15 18" fill="none" xmlns="http://www.w3.org/2000/svg">
<path d="M7.2439 6.10027C7.6436 6.10027 8.03942 6.02129 8.40866 5.8679C8.7779 5.71452 9.11334 5.48974 9.39584 5.20634C9.67835 4.92295 9.90235 4.58656 10.0551 4.21635C10.2078 3.84614 10.2862 3.44938 10.2859 3.04878C10.2859 2.24019 9.96539 1.46469 9.39492 0.892932C8.82444 0.321175 8.05068 0 7.2439 0C6.43713 0 5.66349 0.321175 5.09302 0.892932C4.52254 1.46469 4.20195 2.24019 4.20195 3.04878C4.20195 3.85761 4.52236 4.63336 5.09275 5.20555C5.66315 5.77774 6.43688 6.09955 7.2439 6.10027Z" fill="#896CFE"/>
<path d="M14.4878 14.9919C14.4871 13.0668 13.7236 11.2209 12.3652 9.8599C11.0068 8.49894 9.16463 7.73442 7.2439 7.73442C5.32317 7.73442 3.48118 8.49894 2.12276 9.8599C0.764347 11.2209 0.000716958 13.0668 0 14.9919C0 19.0027 14.4878 19.0027 14.4878 14.9919Z" fill="#896CFE"/>
</svg>
