<svg width="30" height="32" viewBox="0 0 30 32" fill="none" xmlns="http://www.w3.org/2000/svg">
<path d="M3.7627 14.9609V20.9476C3.7627 26.9343 6.0127 29.3343 11.6252 29.3343H18.3627C23.9752 29.3343 26.2252 26.9343 26.2252 20.9476V14.9609" stroke="#B3A0FF" stroke-width="1.5" stroke-linecap="round" stroke-linejoin="round"/>
<path d="M15.0001 15.9993C17.2876 15.9993 18.9751 14.0127 18.7501 11.5727L17.9251 2.66602H12.0876L11.2501 11.5727C11.0251 14.0127 12.7126 15.9993 15.0001 15.9993Z" stroke="#B3A0FF" stroke-width="1.5" stroke-linecap="round" stroke-linejoin="round"/>
<path d="M22.8875 15.9993C25.4125 15.9993 27.2625 13.8127 27.0125 11.1327L26.6625 7.46602C26.2125 3.99935 24.9625 2.66602 21.6875 2.66602H17.875L18.75 12.0127C18.9625 14.2127 20.825 15.9993 22.8875 15.9993Z" fill="#B3A0FF" stroke="#B3A0FF" stroke-width="1.5" stroke-linecap="round" stroke-linejoin="round"/>
<path d="M7.04997 15.9993C9.11247 15.9993 10.975 14.2127 11.175 12.0127L11.45 9.06602L12.05 2.66602H8.23748C4.96248 2.66602 3.71248 3.99935 3.26248 7.46602L2.92498 11.1327C2.67498 13.8127 4.52498 15.9993 7.04997 15.9993Z" fill="#B3A0FF" stroke="#B3A0FF" stroke-width="1.5" stroke-linecap="round" stroke-linejoin="round"/>
<path d="M15 22.666C12.9125 22.666 11.875 23.7727 11.875 25.9993V29.3327H18.125V25.9993C18.125 23.7727 17.0875 22.666 15 22.666Z" stroke="#B3A0FF" stroke-width="1.5" stroke-linecap="round" stroke-linejoin="round"/>
</svg>
