<svg width="33" height="32" viewBox="0 0 33 32" fill="none" xmlns="http://www.w3.org/2000/svg">
<path d="M19.1626 11.6669L12.3438 18.4845L14.0978 20.2382L20.9167 13.4206L19.1626 11.6669Z" fill="#B3A0FF"/>
<path d="M12.6675 30.301C12.7287 30.2427 12.7772 30.1724 12.8103 30.0946C12.8433 30.0168 12.8602 29.933 12.8596 29.8484C12.8602 29.7638 12.8433 29.6801 12.8103 29.6022C12.7772 29.5244 12.7287 29.4541 12.6675 29.3958L3.10468 19.8287C3.04579 19.7686 2.97539 19.7211 2.89756 19.6891C2.81973 19.6572 2.73612 19.6413 2.65198 19.6427C2.56785 19.6413 2.48438 19.6572 2.40656 19.6891C2.32873 19.7211 2.25817 19.7686 2.19928 19.8287L0.686152 21.3416C0.626051 21.4004 0.578542 21.4709 0.546558 21.5487C0.514573 21.6266 0.498753 21.7101 0.500077 21.7942C0.498753 21.8783 0.514573 21.9618 0.546558 22.0396C0.578542 22.1174 0.626051 22.1879 0.686152 22.2468L10.255 31.8139C10.3139 31.874 10.3845 31.9215 10.4623 31.9535C10.5401 31.9854 10.6236 32.0012 10.7077 31.9999C10.877 31.9985 11.0391 31.9319 11.1604 31.8139L12.6675 30.301Z" fill="#B3A0FF"/>
<path d="M18.7449 27.8209C18.7437 27.6255 18.6659 27.4384 18.5279 27.3001L5.20088 13.9756C5.13201 13.906 5.04978 13.8509 4.95924 13.8136C4.86869 13.7764 4.77161 13.7576 4.67369 13.7585C4.57671 13.7577 4.48054 13.7766 4.39102 13.8139C4.3015 13.8511 4.22043 13.9062 4.15271 13.9756L2.54041 15.5938C2.4704 15.6611 2.41499 15.7421 2.37765 15.8317C2.34031 15.9213 2.32176 16.0176 2.32329 16.1147C2.32249 16.2116 2.34141 16.3077 2.37871 16.3972C2.41601 16.4867 2.47098 16.5678 2.54041 16.6355L15.8674 29.96C15.9352 30.0294 16.0162 30.0844 16.1058 30.1217C16.1953 30.159 16.2914 30.1778 16.3884 30.177C16.4855 30.1785 16.5818 30.1601 16.6714 30.1227C16.761 30.0854 16.842 30.03 16.9093 29.96L18.5279 28.3417C18.5968 28.2736 18.6514 28.1925 18.6887 28.1031C18.726 28.0137 18.745 27.9177 18.7449 27.8209Z" fill="#B3A0FF"/>
<path d="M29.8952 12.1713C29.9541 12.2314 30.0246 12.2788 30.1024 12.3108C30.1803 12.3428 30.2637 12.3586 30.3479 12.3573C30.432 12.3586 30.5156 12.3428 30.5934 12.3108C30.6713 12.2788 30.7418 12.2314 30.8007 12.1713L32.3138 10.6584C32.3739 10.5995 32.4215 10.529 32.4534 10.4512C32.4854 10.3734 32.5012 10.2899 32.4999 10.2057C32.5012 10.1216 32.4854 10.0381 32.4534 9.96031C32.4215 9.8825 32.3739 9.81202 32.3138 9.75314L22.751 0.192221C22.6927 0.131009 22.6225 0.0823771 22.5447 0.0493223C22.4668 0.0162675 22.3829 -0.000510169 22.2983 1.1816e-05C22.2137 -0.000510169 22.13 0.0162675 22.0521 0.0493223C21.9743 0.0823771 21.904 0.131009 21.8456 0.192221L20.3325 1.6989C20.2724 1.75778 20.2249 1.82828 20.1929 1.90609C20.1609 1.9839 20.1451 2.06741 20.1464 2.15153C20.1451 2.23564 20.1609 2.31915 20.1929 2.39696C20.2249 2.47478 20.2724 2.54528 20.3325 2.60416L29.8952 12.1713Z" fill="#B3A0FF"/>
<path d="M30.4659 16.4123C30.6016 16.2729 30.6772 16.086 30.6767 15.8915C30.6782 15.695 30.6026 15.5057 30.4659 15.3644L17.1327 2.01513C17.0646 1.94628 16.9834 1.89166 16.8939 1.8544C16.8045 1.81715 16.7086 1.79801 16.6117 1.79811C16.4163 1.79926 16.2291 1.87721 16.0907 2.01513L14.6459 3.45979C14.5779 3.52823 14.5242 3.60956 14.488 3.69899C14.4518 3.78842 14.4337 3.88417 14.435 3.98064C14.4338 4.17526 14.5097 4.36245 14.6459 4.50146L27.9791 17.826C28.0464 17.896 28.1274 17.9514 28.217 17.9887C28.3066 18.026 28.4029 18.0445 28.5 18.043C28.5969 18.0438 28.6931 18.025 28.7826 17.9877C28.8722 17.9504 28.9532 17.8954 29.0209 17.826L30.4659 16.4123Z" fill="#B3A0FF"/>
</svg>
