<svg width="28" height="28" viewBox="0 0 28 28" fill="none" xmlns="http://www.w3.org/2000/svg">
<path d="M26.0148 8.68882L20.7151 7.29889C20.0598 7.1247 19.4926 6.69739 19.1289 6.1037L16.2211 1.28262C15.9883 0.886944 15.6611 0.560825 15.2713 0.336065C14.8814 0.111304 14.4423 -0.00443224 13.9967 0.000129833C13.5523 -0.00326981 13.1146 0.113019 12.726 0.337724C12.3374 0.562429 12.0111 0.887925 11.7789 1.28262L8.86463 6.1037C8.50482 6.69839 7.93932 7.12629 7.28505 7.29889L1.9853 8.68882C1.55418 8.80152 1.15756 9.02642 0.832758 9.34242C0.507952 9.65843 0.265628 10.0552 0.12836 10.4955C-0.00890872 10.9357 -0.0366746 11.4051 0.0479246 11.8596C0.132524 12.314 0.326606 12.7386 0.611916 13.0936L4.11297 17.4648C4.54582 18.0045 4.76277 18.6969 4.71899 19.3986L4.35145 25.0792C4.32765 25.4527 4.37762 25.8275 4.49831 26.1801C4.619 26.5328 4.80787 26.856 5.05317 27.1297C5.29847 27.4034 5.59504 27.6219 5.92458 27.7716C6.25411 27.9212 6.60962 27.999 6.96913 28C7.30465 27.9998 7.63714 27.9338 7.94915 27.8053L13.0232 25.6835C13.3333 25.5564 13.6635 25.4904 13.9967 25.4887C14.3322 25.4897 14.6645 25.5558 14.9768 25.6835L20.051 27.8053C20.363 27.9338 20.6955 27.9998 21.031 28C21.3905 27.999 21.7458 27.9212 22.0754 27.7716C22.4049 27.6219 22.7015 27.4034 22.9468 27.1297C23.1921 26.856 23.381 26.5328 23.5016 26.1801C23.6223 25.8275 23.6723 25.4527 23.6485 25.0792L23.2811 19.3986C23.2373 18.6969 23.4543 18.0045 23.8871 17.4648L27.388 13.0936C27.6733 12.7386 27.8674 12.314 27.952 11.8596C28.0366 11.4051 28.009 10.9357 27.8717 10.4955C27.7345 10.0552 27.492 9.65843 27.1672 9.34242C26.8424 9.02642 26.4459 8.80152 26.0148 8.68882Z" fill="white"/>
</svg>
